{
	"asset":{
		"generator":"Khronos glTF Blender I/O v4.2.57",
		"version":"2.0"
	},
	"scene":0,
	"scenes":[
		{
			"name":"Scene",
			"nodes":[
				11
			]
		}
	],
	"nodes":[
		{
			"mesh":0,
			"name":"Object_10"
		},
		{
			"mesh":1,
			"name":"Object_11"
		},
		{
			"mesh":2,
			"name":"Object_4"
		},
		{
			"mesh":3,
			"name":"Object_5"
		},
		{
			"mesh":4,
			"name":"Object_6"
		},
		{
			"mesh":5,
			"name":"Object_7"
		},
		{
			"mesh":6,
			"name":"Object_8"
		},
		{
			"mesh":7,
			"name":"Object_9"
		},
		{
			"children":[
				0,
				1,
				2,
				3,
				4,
				5,
				6,
				7
			],
			"name":"Phone_0",
			"rotation":[
				0.70710688829422,
				0,
				0,
				0.7071066498756409
			],
			"scale":[
				0.7627506256103516,
				0.4935663342475891,
				0.7627505660057068
			]
		},
		{
			"children":[
				8
			],
			"name":"GLTF_SceneRootNode",
			"rotation":[
				0.70710688829422,
				0,
				0,
				0.7071066498756409
			]
		},
		{
			"children":[
				9
			],
			"name":"root"
		},
		{
			"children":[
				10
			],
			"name":"Sketchfab_model",
			"rotation":[
				-0.70710688829422,
				0,
				0,
				0.7071066498756409
			],
			"scale":[
				0.0476190485060215,
				0.0476190559566021,
				0.0476190559566021
			]
		}
	],
	"materials":[
		{
			"doubleSided":true,
			"name":"Black",
			"pbrMetallicRoughness":{
				"baseColorFactor":[
					0,
					0,
					0,
					1
				],
				"metallicFactor":0,
				"roughnessFactor":0.5
			}
		},
		{
			"doubleSided":true,
			"name":"Button",
			"pbrMetallicRoughness":{
				"baseColorFactor":[
					0,
					0,
					0,
					1
				],
				"metallicFactor":0,
				"roughnessFactor":0.30000001192092896
			}
		},
		{
			"doubleSided":true,
			"name":"White",
			"pbrMetallicRoughness":{
				"baseColorFactor":[
					0.26973599195480347,
					0.26973599195480347,
					0.26973599195480347,
					1
				],
				"metallicFactor":0.6000000238418579,
				"roughnessFactor":0.4000000059604645
			}
		},
		{
			"doubleSided":true,
			"name":"Camera.001",
			"pbrMetallicRoughness":{
				"baseColorFactor":[
					0.537211000919342,
					0.537211000919342,
					0.537211000919342,
					1
				],
				"roughnessFactor":0.05000000074505806
			}
		},
		{
			"doubleSided":true,
			"name":"Camera.002",
			"pbrMetallicRoughness":{
				"baseColorFactor":[
					0.09285330027341843,
					0.09285330027341843,
					0.09285330027341843,
					1
				],
				"roughnessFactor":0
			}
		},
		{
			"doubleSided":true,
			"name":"Flash",
			"pbrMetallicRoughness":{
				"baseColorFactor":[
					0.5983949899673462,
					0.5983949899673462,
					0.5983949899673462,
					1
				],
				"roughnessFactor":0.05000000074505806
			}
		},
		{
			"doubleSided":true,
			"name":"Case",
			"pbrMetallicRoughness":{
				"baseColorFactor":[
					0,
					0,
					0,
					1
				],
				"metallicFactor":0,
				"roughnessFactor":0.4000000059604645
			}
		},
		{
			"doubleSided":true,
			"name":"Screen",
			"pbrMetallicRoughness":{
				"baseColorFactor":[
					0,
					0.6937577724456787,
					1,
					1
				],
				"roughnessFactor":0.05000000074505806
			}
		}
	],
	"meshes":[
		{
			"name":"Object_6",
			"primitives":[
				{
					"attributes":{
						"POSITION":0,
						"NORMAL":1,
						"TEXCOORD_0":2
					},
					"indices":3,
					"material":0
				}
			]
		},
		{
			"name":"Object_7",
			"primitives":[
				{
					"attributes":{
						"POSITION":4,
						"NORMAL":5,
						"TEXCOORD_0":6
					},
					"indices":7,
					"material":1
				}
			]
		},
		{
			"name":"Object_0",
			"primitives":[
				{
					"attributes":{
						"POSITION":8,
						"NORMAL":9,
						"TEXCOORD_0":10
					},
					"indices":11,
					"material":2
				}
			]
		},
		{
			"name":"Object_1",
			"primitives":[
				{
					"attributes":{
						"POSITION":12,
						"NORMAL":13,
						"TEXCOORD_0":14
					},
					"indices":15,
					"material":3
				}
			]
		},
		{
			"name":"Object_2",
			"primitives":[
				{
					"attributes":{
						"POSITION":16,
						"NORMAL":17,
						"TEXCOORD_0":18
					},
					"indices":19,
					"material":4
				}
			]
		},
		{
			"name":"Object_3",
			"primitives":[
				{
					"attributes":{
						"POSITION":20,
						"NORMAL":21,
						"TEXCOORD_0":22
					},
					"indices":23,
					"material":5
				}
			]
		},
		{
			"name":"Object_4",
			"primitives":[
				{
					"attributes":{
						"POSITION":24,
						"NORMAL":25,
						"TEXCOORD_0":26
					},
					"indices":27,
					"material":6
				}
			]
		},
		{
			"name":"Object_5",
			"primitives":[
				{
					"attributes":{
						"POSITION":28,
						"NORMAL":29,
						"TEXCOORD_0":30
					},
					"indices":31,
					"material":7
				}
			]
		}
	],
	"accessors":[
		{
			"bufferView":0,
			"componentType":5126,
			"count":2234,
			"max":[
				0.8670493364334106,
				0.19956639409065247,
				-0.0065555572509765625
			],
			"min":[
				-0.6932633519172668,
				-0.07783268392086029,
				-5.1784348487854
			],
			"type":"VEC3"
		},
		{
			"bufferView":1,
			"componentType":5126,
			"count":2234,
			"type":"VEC3"
		},
		{
			"bufferView":2,
			"componentType":5126,
			"count":2234,
			"type":"VEC2"
		},
		{
			"bufferView":3,
			"componentType":5123,
			"count":5628,
			"type":"SCALAR"
		},
		{
			"bufferView":4,
			"componentType":5126,
			"count":489,
			"max":[
				1.332534670829773,
				0.10100891441106796,
				-2.9477314949035645
			],
			"min":[
				-1.3380675315856934,
				-0.0004949569702148438,
				-3.6958460807800293
			],
			"type":"VEC3"
		},
		{
			"bufferView":5,
			"componentType":5126,
			"count":489,
			"type":"VEC3"
		},
		{
			"bufferView":6,
			"componentType":5126,
			"count":489,
			"type":"VEC2"
		},
		{
			"bufferView":7,
			"componentType":5123,
			"count":1314,
			"type":"SCALAR"
		},
		{
			"bufferView":8,
			"componentType":5126,
			"count":21095,
			"max":[
				1.011139154434204,
				0.20657691359519958,
				-3.5317771434783936
			],
			"min":[
				-0.05271872505545616,
				-0.22207272052764893,
				-5.119836330413818
			],
			"type":"VEC3"
		},
		{
			"bufferView":9,
			"componentType":5126,
			"count":21095,
			"type":"VEC3"
		},
		{
			"bufferView":10,
			"componentType":5126,
			"count":21095,
			"type":"VEC2"
		},
		{
			"bufferView":11,
			"componentType":5123,
			"count":108288,
			"type":"SCALAR"
		},
		{
			"bufferView":12,
			"componentType":5126,
			"count":20772,
			"max":[
				0.9559457302093506,
				0.2084115892648697,
				-3.6334428787231445
			],
			"min":[
				-0.03737959265708923,
				-0.2166055142879486,
				-5.10449743270874
			],
			"type":"VEC3"
		},
		{
			"bufferView":13,
			"componentType":5126,
			"count":20772,
			"type":"VEC3"
		},
		{
			"bufferView":14,
			"componentType":5126,
			"count":20772,
			"type":"VEC2"
		},
		{
			"bufferView":15,
			"componentType":5123,
			"count":29952,
			"type":"SCALAR"
		},
		{
			"bufferView":16,
			"componentType":5126,
			"count":3115,
			"max":[
				1.2453019618988037,
				0.209453746676445,
				-0.06574249267578125
			],
			"min":[
				-1.2453017234802246,
				-0.2327147126197815,
				-5.1784348487854
			],
			"type":"VEC3"
		},
		{
			"bufferView":17,
			"componentType":5126,
			"count":3115,
			"type":"VEC3"
		},
		{
			"bufferView":18,
			"componentType":5126,
			"count":3115,
			"type":"VEC2"
		},
		{
			"bufferView":19,
			"componentType":5123,
			"count":11457,
			"type":"SCALAR"
		},
		{
			"bufferView":20,
			"componentType":5126,
			"count":130,
			"max":[
				0.5686389803886414,
				-0.1939098834991455,
				-4.44254207611084
			],
			"min":[
				0.436032235622406,
				-0.21552324295043945,
				-4.64688777923584
			],
			"type":"VEC3"
		},
		{
			"bufferView":21,
			"componentType":5126,
			"count":130,
			"type":"VEC3"
		},
		{
			"bufferView":22,
			"componentType":5126,
			"count":130,
			"type":"VEC2"
		},
		{
			"bufferView":23,
			"componentType":5123,
			"count":372,
			"type":"SCALAR"
		},
		{
			"bufferView":24,
			"componentType":5126,
			"count":2970,
			"max":[
				1.3110443353652954,
				0.20260648429393768,
				0
			],
			"min":[
				-1.3110443353652954,
				-0.20260953903198242,
				-5.244177341461182
			],
			"type":"VEC3"
		},
		{
			"bufferView":25,
			"componentType":5126,
			"count":2970,
			"type":"VEC3"
		},
		{
			"bufferView":26,
			"componentType":5126,
			"count":2970,
			"type":"VEC2"
		},
		{
			"bufferView":27,
			"componentType":5123,
			"count":9525,
			"type":"SCALAR"
		},
		{
			"bufferView":28,
			"componentType":5126,
			"count":92,
			"max":[
				1.2131623029708862,
				0.19969715178012848,
				-0.09729290008544922
			],
			"min":[
				-1.211700677871704,
				0.19969521462917328,
				-5.152190208435059
			],
			"type":"VEC3"
		},
		{
			"bufferView":29,
			"componentType":5126,
			"count":92,
			"type":"VEC3"
		},
		{
			"bufferView":30,
			"componentType":5126,
			"count":92,
			"type":"VEC2"
		},
		{
			"bufferView":31,
			"componentType":5123,
			"count":270,
			"type":"SCALAR"
		}
	],
	"bufferViews":[
		{
			"buffer":0,
			"byteLength":26808,
			"byteOffset":0,
			"target":34962
		},
		{
			"buffer":0,
			"byteLength":26808,
			"byteOffset":26808,
			"target":34962
		},
		{
			"buffer":0,
			"byteLength":17872,
			"byteOffset":53616,
			"target":34962
		},
		{
			"buffer":0,
			"byteLength":11256,
			"byteOffset":71488,
			"target":34963
		},
		{
			"buffer":0,
			"byteLength":5868,
			"byteOffset":82744,
			"target":34962
		},
		{
			"buffer":0,
			"byteLength":5868,
			"byteOffset":88612,
			"target":34962
		},
		{
			"buffer":0,
			"byteLength":3912,
			"byteOffset":94480,
			"target":34962
		},
		{
			"buffer":0,
			"byteLength":2628,
			"byteOffset":98392,
			"target":34963
		},
		{
			"buffer":0,
			"byteLength":253140,
			"byteOffset":101020,
			"target":34962
		},
		{
			"buffer":0,
			"byteLength":253140,
			"byteOffset":354160,
			"target":34962
		},
		{
			"buffer":0,
			"byteLength":168760,
			"byteOffset":607300,
			"target":34962
		},
		{
			"buffer":0,
			"byteLength":216576,
			"byteOffset":776060,
			"target":34963
		},
		{
			"buffer":0,
			"byteLength":249264,
			"byteOffset":992636,
			"target":34962
		},
		{
			"buffer":0,
			"byteLength":249264,
			"byteOffset":1241900,
			"target":34962
		},
		{
			"buffer":0,
			"byteLength":166176,
			"byteOffset":1491164,
			"target":34962
		},
		{
			"buffer":0,
			"byteLength":59904,
			"byteOffset":1657340,
			"target":34963
		},
		{
			"buffer":0,
			"byteLength":37380,
			"byteOffset":1717244,
			"target":34962
		},
		{
			"buffer":0,
			"byteLength":37380,
			"byteOffset":1754624,
			"target":34962
		},
		{
			"buffer":0,
			"byteLength":24920,
			"byteOffset":1792004,
			"target":34962
		},
		{
			"buffer":0,
			"byteLength":22914,
			"byteOffset":1816924,
			"target":34963
		},
		{
			"buffer":0,
			"byteLength":1560,
			"byteOffset":1839840,
			"target":34962
		},
		{
			"buffer":0,
			"byteLength":1560,
			"byteOffset":1841400,
			"target":34962
		},
		{
			"buffer":0,
			"byteLength":1040,
			"byteOffset":1842960,
			"target":34962
		},
		{
			"buffer":0,
			"byteLength":744,
			"byteOffset":1844000,
			"target":34963
		},
		{
			"buffer":0,
			"byteLength":35640,
			"byteOffset":1844744,
			"target":34962
		},
		{
			"buffer":0,
			"byteLength":35640,
			"byteOffset":1880384,
			"target":34962
		},
		{
			"buffer":0,
			"byteLength":23760,
			"byteOffset":1916024,
			"target":34962
		},
		{
			"buffer":0,
			"byteLength":19050,
			"byteOffset":1939784,
			"target":34963
		},
		{
			"buffer":0,
			"byteLength":1104,
			"byteOffset":1958836,
			"target":34962
		},
		{
			"buffer":0,
			"byteLength":1104,
			"byteOffset":1959940,
			"target":34962
		},
		{
			"buffer":0,
			"byteLength":736,
			"byteOffset":1961044,
			"target":34962
		},
		{
			"buffer":0,
			"byteLength":540,
			"byteOffset":1961780,
			"target":34963
		}
	],
	"buffers":[
		{
			"byteLength":1962320,
			"uri":"phone.bin"
		}
	]
}
