{
  "accessors": [
    {
      "bufferView": 2,
      "componentType": 5126,
      "count": 7035,
      "max": [
        0.8501436114311218,
        0.15650923550128937,
        2.5880672931671143
      ],
      "min": [
        -1.2523701190948486,
        -0.04418806731700897,
        -1.3956362009048462
      ],
      "type": "VEC3"
    },
    {
      "bufferView": 2,
      "byteOffset": 84420,
      "componentType": 5126,
      "count": 7035,
      "max": [
        1.0,
        1.0,
        1.0
      ],
      "min": [
        -1.0,
        -1.0,
        -1.0
      ],
      "type": "VEC3"
    },
    {
      "bufferView": 1,
      "componentType": 5126,
      "count": 7035,
      "max": [
        1.0000001192092896,
        1.0
      ],
      "min": [
        0.0,
        0.0
      ],
      "type": "VEC2"
    },
    {
      "bufferView": 0,
      "componentType": 5125,
      "count": 25110,
      "type": "SCALAR"
    },
    {
      "bufferView": 2,
      "byteOffset": 168840,
      "componentType": 5126,
      "count": 44,
      "max": [
        0.7401959300041199,
        0.15581198036670685,
        2.488067388534546
      ],
      "min": [
        -1.1394075155258179,
        0.15581198036670685,
        -1.2956362962722778
      ],
      "type": "VEC3"
    },
    {
      "bufferView": 2,
      "byteOffset": 169368,
      "componentType": 5126,
      "count": 44,
      "max": [
        3.279729959837496e-11,
        1.0,
        -0.0
      ],
      "min": [
        3.279729959837496e-11,
        1.0,
        -0.0
      ],
      "type": "VEC3"
    },
    {
      "bufferView": 1,
      "byteOffset": 56280,
      "componentType": 5126,
      "count": 44,
      "max": [
        0.9519139528274536,
        0.9748977422714233
      ],
      "min": [
        0.04808606579899788,
        0.025102268904447556
      ],
      "type": "VEC2"
    },
    {
      "bufferView": 0,
      "byteOffset": 100440,
      "componentType": 5125,
      "count": 126,
      "type": "SCALAR"
    },
    {
      "bufferView": 2,
      "byteOffset": 169896,
      "componentType": 5126,
      "count": 448,
      "max": [
        0.8401960730552673,
        0.15581198036670685,
        -0.779593825340271
      ],
      "min": [
        -1.2394075393676758,
        -0.12055377662181854,
        -1.2751604318618774
      ],
      "type": "VEC3"
    },
    {
      "bufferView": 2,
      "byteOffset": 175272,
      "componentType": 5126,
      "count": 448,
      "max": [
        1.0,
        1.0,
        0.9986827969551086
      ],
      "min": [
        -1.0,
        -1.0,
        -0.9986830353736877
      ],
      "type": "VEC3"
    },
    {
      "bufferView": 1,
      "byteOffset": 56632,
      "componentType": 5126,
      "count": 448,
      "max": [
        1.0,
        0.9534141421318054
      ],
      "min": [
        0.0,
        0.0
      ],
      "type": "VEC2"
    },
    {
      "bufferView": 0,
      "byteOffset": 100944,
      "componentType": 5125,
      "count": 1530,
      "type": "SCALAR"
    },
    {
      "bufferView": 2,
      "byteOffset": 180648,
      "componentType": 5126,
      "count": 96,
      "max": [
        0.6383339762687683,
        -0.05543164908885956,
        -0.8490504026412964
      ],
      "min": [
        -0.12287242710590363,
        -0.12055234611034393,
        -1.205703854560852
      ],
      "type": "VEC3"
    },
    {
      "bufferView": 2,
      "byteOffset": 181800,
      "componentType": 5126,
      "count": 96,
      "max": [
        1.0,
        7.692962390137836e-05,
        0.998682975769043
      ],
      "min": [
        -1.0,
        -1.0,
        -0.998682975769043
      ],
      "type": "VEC3"
    },
    {
      "bufferView": 1,
      "byteOffset": 60216,
      "componentType": 5126,
      "count": 96,
      "max": [
        0.0,
        0.0
      ],
      "min": [
        0.0,
        0.0
      ],
      "type": "VEC2"
    },
    {
      "bufferView": 0,
      "byteOffset": 107064,
      "componentType": 5125,
      "count": 282,
      "type": "SCALAR"
    },
    {
      "bufferView": 2,
      "byteOffset": 182952,
      "componentType": 5126,
      "count": 192,
      "max": [
        0.6383344531059265,
        -0.10909567773342133,
        -0.8490503430366516
      ],
      "min": [
        -0.12286790460348129,
        -0.12055254727602005,
        -1.2057037353515625
      ],
      "type": "VEC3"
    },
    {
      "bufferView": 2,
      "byteOffset": 185256,
      "componentType": 5126,
      "count": 192,
      "max": [
        0.9962077140808105,
        1.0,
        0.999968409538269
      ],
      "min": [
        -0.9962077140808105,
        -1.0,
        -0.999968409538269
      ],
      "type": "VEC3"
    },
    {
      "bufferView": 1,
      "byteOffset": 60984,
      "componentType": 5126,
      "count": 192,
      "max": [
        0.0,
        0.0
      ],
      "min": [
        0.0,
        0.0
      ],
      "type": "VEC2"
    },
    {
      "bufferView": 0,
      "byteOffset": 108192,
      "componentType": 5125,
      "count": 372,
      "type": "SCALAR"
    },
    {
      "bufferView": 2,
      "byteOffset": 187560,
      "componentType": 5126,
      "count": 1776,
      "max": [
        0.5074967741966248,
        -0.033757373690605164,
        -0.9802041053771973
      ],
      "min": [
        0.001803337363526225,
        -0.08035950362682343,
        -1.1567209959030151
      ],
      "type": "VEC3"
    },
    {
      "bufferView": 2,
      "byteOffset": 208872,
      "componentType": 5126,
      "count": 1776,
      "max": [
        0.9795092940330505,
        1.0,
        0.9795103073120117
      ],
      "min": [
        -0.9795109033584595,
        -1.0,
        -0.9795052409172058
      ],
      "type": "VEC3"
    },
    {
      "bufferView": 1,
      "byteOffset": 62520,
      "componentType": 5126,
      "count": 1776,
      "max": [
        1.0,
        1.0
      ],
      "min": [
        0.0,
        0.0
      ],
      "type": "VEC2"
    },
    {
      "bufferView": 0,
      "byteOffset": 109680,
      "componentType": 5125,
      "count": 8640,
      "type": "SCALAR"
    },
    {
      "bufferView": 2,
      "byteOffset": 230184,
      "componentType": 5126,
      "count": 1056,
      "max": [
        0.6256477236747742,
        -0.04160921275615692,
        -0.8620543479919434
      ],
      "min": [
        -0.11634789407253265,
        -0.10393624007701874,
        -1.1978563070297241
      ],
      "type": "VEC3"
    },
    {
      "bufferView": 2,
      "byteOffset": 242856,
      "componentType": 5126,
      "count": 1056,
      "max": [
        1.0,
        1.0,
        1.0
      ],
      "min": [
        -1.0,
        -8.466748840874061e-05,
        -1.0
      ],
      "type": "VEC3"
    },
    {
      "bufferView": 1,
      "byteOffset": 76728,
      "componentType": 5126,
      "count": 1056,
      "max": [
        1.0000120401382446,
        0.5000000596046448
      ],
      "min": [
        -1.2095428246539086e-05,
        0.4999999701976776
      ],
      "type": "VEC2"
    },
    {
      "bufferView": 0,
      "byteOffset": 144240,
      "componentType": 5125,
      "count": 3072,
      "type": "SCALAR"
    },
    {
      "bufferView": 2,
      "byteOffset": 255528,
      "componentType": 5126,
      "count": 1974,
      "max": [
        0.29002946615219116,
        -0.04084177315235138,
        -0.8682512640953064
      ],
      "min": [
        0.21969127655029297,
        -0.06435186415910721,
        -0.9385895133018494
      ],
      "type": "VEC3"
    },
    {
      "bufferView": 2,
      "byteOffset": 279216,
      "componentType": 5126,
      "count": 1974,
      "max": [
        1.0,
        1.0,
        1.0
      ],
      "min": [
        -1.0,
        -1.0,
        -1.0
      ],
      "type": "VEC3"
    },
    {
      "bufferView": 1,
      "byteOffset": 85176,
      "componentType": 5126,
      "count": 1974,
      "max": [
        1.0,
        1.0
      ],
      "min": [
        0.0,
        0.0
      ],
      "type": "VEC2"
    },
    {
      "bufferView": 0,
      "byteOffset": 156528,
      "componentType": 5125,
      "count": 9024,
      "type": "SCALAR"
    },
    {
      "bufferView": 2,
      "byteOffset": 302904,
      "componentType": 5126,
      "count": 128,
      "max": [
        0.6383334994316101,
        -0.10909567773342133,
        -0.8490503430366516
      ],
      "min": [
        -0.12286790460348129,
        -0.1091545894742012,
        -1.2057037353515625
      ],
      "type": "VEC3"
    },
    {
      "bufferView": 2,
      "byteOffset": 304440,
      "componentType": 5126,
      "count": 128,
      "max": [
        8.83855318534188e-05,
        -1.0,
        7.516758614656283e-06
      ],
      "min": [
        7.009886758169159e-05,
        -1.0,
        -6.859866061859066e-06
      ],
      "type": "VEC3"
    },
    {
      "bufferView": 1,
      "byteOffset": 100968,
      "componentType": 5126,
      "count": 128,
      "max": [
        0.0,
        0.0
      ],
      "min": [
        0.0,
        0.0
      ],
      "type": "VEC2"
    },
    {
      "bufferView": 0,
      "byteOffset": 192624,
      "componentType": 5125,
      "count": 192,
      "type": "SCALAR"
    },
    {
      "bufferView": 2,
      "byteOffset": 305976,
      "componentType": 5126,
      "count": 32,
      "max": [
        -0.22238682210445404,
        -0.04428655654191971,
        -0.987937867641449
      ],
      "min": [
        -0.32319483160972595,
        -0.04526442289352417,
        -1.0887506008148193
      ],
      "type": "VEC3"
    },
    {
      "bufferView": 2,
      "byteOffset": 306360,
      "componentType": 5126,
      "count": 32,
      "max": [
        -0.009699756279587746,
        0.999953031539917,
        3.1237855182553176e-06
      ],
      "min": [
        -0.009699756279587746,
        0.999953031539917,
        3.1237855182553176e-06
      ],
      "type": "VEC3"
    },
    {
      "bufferView": 1,
      "byteOffset": 101992,
      "componentType": 5126,
      "count": 32,
      "max": [
        0.0,
        0.0
      ],
      "min": [
        0.0,
        0.0
      ],
      "type": "VEC2"
    },
    {
      "bufferView": 0,
      "byteOffset": 193392,
      "componentType": 5125,
      "count": 90,
      "type": "SCALAR"
    },
    {
      "bufferView": 2,
      "byteOffset": 306744,
      "componentType": 5126,
      "count": 384,
      "max": [
        -0.2159312218427658,
        -0.027403932064771652,
        -0.9817796945571899
      ],
      "min": [
        -0.3292549252510071,
        -0.051812730729579926,
        -1.0945987701416016
      ],
      "type": "VEC3"
    },
    {
      "bufferView": 2,
      "byteOffset": 311352,
      "componentType": 5126,
      "count": 384,
      "max": [
        0.9949051737785339,
        0.9996873736381531,
        0.995216429233551
      ],
      "min": [
        -0.9949051141738892,
        -0.024889716878533363,
        -0.995216429233551
      ],
      "type": "VEC3"
    },
    {
      "bufferView": 1,
      "byteOffset": 102248,
      "componentType": 5126,
      "count": 384,
      "max": [
        0.0,
        0.0
      ],
      "min": [
        0.0,
        0.0
      ],
      "type": "VEC2"
    },
    {
      "bufferView": 0,
      "byteOffset": 193752,
      "componentType": 5125,
      "count": 576,
      "type": "SCALAR"
    },
    {
      "bufferView": 2,
      "byteOffset": 315960,
      "componentType": 5126,
      "count": 6,
      "max": [
        0.0007138699293136597,
        -0.0452522374689579,
        0.7564694881439209
      ],
      "min": [
        -0.42428696155548096,
        -0.05240703746676445,
        0.32777130603790283
      ],
      "type": "VEC3"
    },
    {
      "bufferView": 2,
      "byteOffset": 316032,
      "componentType": 5126,
      "count": 6,
      "max": [
        0.01681302674114704,
        -0.999858021736145,
        -0.0011271459516137838
      ],
      "min": [
        0.01681302674114704,
        -0.999858021736145,
        -0.0011271459516137838
      ],
      "type": "VEC3"
    },
    {
      "bufferView": 1,
      "byteOffset": 105320,
      "componentType": 5126,
      "count": 6,
      "max": [
        1.0,
        1.0
      ],
      "min": [
        0.0,
        0.0
      ],
      "type": "VEC2"
    },
    {
      "bufferView": 0,
      "byteOffset": 196056,
      "componentType": 5125,
      "count": 12,
      "type": "SCALAR"
    }
  ],
  "asset": {
    "extras": {
      "author": "Audrey Gonçalves (https://sketchfab.com/audreyfv10)",
      "license": "CC-BY-4.0 (http://creativecommons.org/licenses/by/4.0/)",
      "source": "https://sketchfab.com/3d-models/brand-new-mobile-phone-1f20dcd41aa94a2c93f4abdc135f90d0",
      "title": "Brand New Mobile Phone"
    },
    "generator": "Sketchfab-15.32.0",
    "version": "2.0"
  },
  "bufferViews": [
    {
      "buffer": 0,
      "byteLength": 196104,
      "name": "floatBufferViews",
      "target": 34963
    },
    {
      "buffer": 0,
      "byteLength": 105368,
      "byteOffset": 196104,
      "byteStride": 8,
      "name": "floatBufferViews",
      "target": 34962
    },
    {
      "buffer": 0,
      "byteLength": 316104,
      "byteOffset": 301472,
      "byteStride": 12,
      "name": "floatBufferViews",
      "target": 34962
    }
  ],
  "buffers": [
    {
      "byteLength": 617576,
      "uri": "scene.bin"
    }
  ],
  "extensionsUsed": [
    "KHR_materials_specular",
    "KHR_materials_transmission"
  ],
  "materials": [
    {
      "doubleSided": true,
      "name": "material_0",
      "pbrMetallicRoughness": {
        "baseColorFactor": [
          0.033974272673473235,
          0.04166117627812112,
          0.033041614828720575,
          1.0
        ],
        "metallicFactor": 0.0,
        "roughnessFactor": 0.0
      }
    },
    {
      "doubleSided": true,
      "extensions": {
        "KHR_materials_specular": {
          "specularColorFactor": [
            1.0,
            1.0,
            1.0
          ],
          "specularFactor": 0.2300952380952381
        }
      },
      "name": "Material.002",
      "pbrMetallicRoughness": {
        "baseColorFactor": [
          0.017017,
          0.0227964,
          0.0227964,
          1.0
        ],
        "metallicFactor": 0.5043809523809524,
        "roughnessFactor": 0.485924
      }
    },
    {
      "doubleSided": true,
      "extensions": {
        "KHR_materials_transmission": {
          "transmissionFactor": 0.0
        }
      },
      "name": "Material.010",
      "pbrMetallicRoughness": {
        "baseColorFactor": [
          1.0,
          0.933513,
          0.962621,
          1.0
        ],
        "metallicFactor": 0.985294,
        "roughnessFactor": 0.17866666666666664
      }
    },
    {
      "doubleSided": true,
      "name": "Material.001",
      "pbrMetallicRoughness": {
        "baseColorFactor": [
          0.009764960000000001,
          0.011686700000000005,
          0.0146657,
          1.0
        ],
        "metallicFactor": 0.789916,
        "roughnessFactor": 0.5
      }
    },
    {
      "doubleSided": true,
      "name": "Material.003",
      "pbrMetallicRoughness": {
        "baseColorFactor": [
          0.0,
          0.0,
          0.0,
          1.0
        ],
        "metallicFactor": 0.536765,
        "roughnessFactor": 0.455882
      }
    },
    {
      "alphaMode": "BLEND",
      "extensions": {
        "KHR_materials_specular": {
          "specularColorFactor": [
            1.0,
            1.0,
            1.0
          ],
          "specularFactor": 0.6140952380952381
        }
      },
      "name": "Material.006",
      "pbrMetallicRoughness": {
        "baseColorFactor": [
          0.24417700000000006,
          0.41581299999999954,
          0.940388,
          0.096
        ],
        "roughnessFactor": 0.0
      }
    },
    {
      "doubleSided": true,
      "name": "Material.004",
      "pbrMetallicRoughness": {
        "baseColorFactor": [
          0.14671900000000002,
          0.39953199999999994,
          0.7999999999999999,
          1.0
        ],
        "metallicFactor": 0.89916,
        "roughnessFactor": 0.197479
      }
    },
    {
      "doubleSided": true,
      "name": "Material.005",
      "pbrMetallicRoughness": {
        "baseColorFactor": [
          0.0,
          0.0,
          0.0,
          1.0
        ],
        "metallicFactor": 0.882353
      }
    },
    {
      "doubleSided": true,
      "name": "Material.007",
      "pbrMetallicRoughness": {
        "baseColorFactor": [
          0.384361,
          0.384361,
          0.384361,
          1.0
        ],
        "roughnessFactor": 0.676471
      }
    },
    {
      "doubleSided": true,
      "name": "Material.009",
      "pbrMetallicRoughness": {
        "baseColorFactor": [
          0.0,
          0.0,
          0.0,
          1.0
        ],
        "roughnessFactor": 0.5
      }
    },
    {
      "doubleSided": true,
      "name": "Material.014",
      "pbrMetallicRoughness": {
        "metallicFactor": 0.445455,
        "roughnessFactor": 0.5
      }
    },
    {
      "doubleSided": true,
      "name": "Material.017",
      "pbrMetallicRoughness": {
        "baseColorFactor": [
          0.0101165,
          0.0128127,
          0.0128127,
          1.0
        ],
        "roughnessFactor": 0.5
      }
    }
  ],
  "meshes": [
    {
      "name": "Object_0",
      "primitives": [
        {
          "attributes": {
            "NORMAL": 1,
            "POSITION": 0,
            "TEXCOORD_0": 2
          },
          "indices": 3,
          "material": 1,
          "mode": 4
        }
      ]
    },
    {
      "name": "Object_1",
      "primitives": [
        {
          "attributes": {
            "NORMAL": 5,
            "POSITION": 4,
            "TEXCOORD_0": 6
          },
          "indices": 7,
          "material": 2,
          "mode": 4
        }
      ]
    },
    {
      "name": "Object_2",
      "primitives": [
        {
          "attributes": {
            "NORMAL": 9,
            "POSITION": 8,
            "TEXCOORD_0": 10
          },
          "indices": 11,
          "material": 3,
          "mode": 4
        }
      ]
    },
    {
      "name": "Object_3",
      "primitives": [
        {
          "attributes": {
            "NORMAL": 13,
            "POSITION": 12,
            "TEXCOORD_0": 14
          },
          "indices": 15,
          "material": 4,
          "mode": 4
        }
      ]
    },
    {
      "name": "Object_4",
      "primitives": [
        {
          "attributes": {
            "NORMAL": 17,
            "POSITION": 16,
            "TEXCOORD_0": 18
          },
          "indices": 19,
          "material": 5,
          "mode": 4
        }
      ]
    },
    {
      "name": "Object_5",
      "primitives": [
        {
          "attributes": {
            "NORMAL": 21,
            "POSITION": 20,
            "TEXCOORD_0": 22
          },
          "indices": 23,
          "material": 6,
          "mode": 4
        }
      ]
    },
    {
      "name": "Object_6",
      "primitives": [
        {
          "attributes": {
            "NORMAL": 25,
            "POSITION": 24,
            "TEXCOORD_0": 26
          },
          "indices": 27,
          "material": 7,
          "mode": 4
        }
      ]
    },
    {
      "name": "Object_7",
      "primitives": [
        {
          "attributes": {
            "NORMAL": 29,
            "POSITION": 28,
            "TEXCOORD_0": 30
          },
          "indices": 31,
          "material": 8,
          "mode": 4
        }
      ]
    },
    {
      "name": "Object_8",
      "primitives": [
        {
          "attributes": {
            "NORMAL": 33,
            "POSITION": 32,
            "TEXCOORD_0": 34
          },
          "indices": 35,
          "material": 9,
          "mode": 4
        }
      ]
    },
    {
      "name": "Object_9",
      "primitives": [
        {
          "attributes": {
            "NORMAL": 37,
            "POSITION": 36,
            "TEXCOORD_0": 38
          },
          "indices": 39,
          "material": 10,
          "mode": 4
        }
      ]
    },
    {
      "name": "Object_10",
      "primitives": [
        {
          "attributes": {
            "NORMAL": 41,
            "POSITION": 40,
            "TEXCOORD_0": 42
          },
          "indices": 43,
          "material": 11,
          "mode": 4
        }
      ]
    },
    {
      "name": "Object_11",
      "primitives": [
        {
          "attributes": {
            "NORMAL": 45,
            "POSITION": 44,
            "TEXCOORD_0": 46
          },
          "indices": 47,
          "material": 0,
          "mode": 4
        }
      ]
    }
  ],
  "nodes": [
    {
      "children": [
        1
      ],
      "matrix": [
        1.0,
        0.0,
        0.0,
        0.0,
        0.0,
        2.220446049250313e-16,
        -1.0,
        0.0,
        0.0,
        1.0,
        2.220446049250313e-16,
        0.0,
        0.0,
        0.0,
        0.0,
        1.0
      ],
      "name": "Sketchfab_model"
    },
    {
      "children": [
        2
      ],
      "name": "root"
    },
    {
      "children": [
        3
      ],
      "matrix": [
        1.0,
        0.0,
        0.0,
        0.0,
        0.0,
        2.220446049250313e-16,
        1.0,
        0.0,
        0.0,
        -1.0,
        2.220446049250313e-16,
        0.0,
        0.0,
        0.0,
        0.0,
        1.0
      ],
      "name": "GLTF_SceneRootNode"
    },
    {
      "children": [
        4,
        5,
        6,
        7,
        8,
        9,
        10,
        11,
        12,
        13,
        14,
        15
      ],
      "matrix": [
        -0.6820737719535815,
        2.98143934802391e-08,
        2.98143934802391e-08,
        0.0,
        -2.98143934802391e-08,
        6.058032048926367e-16,
        -0.6820737719535822,
        0.0,
        -2.98143934802391e-08,
        -0.6820737719535822,
        6.058032048926367e-16,
        0.0,
        -1.6034126281738281,
        1.7868752479553223,
        -8.168190002441406,
        1.0
      ],
      "name": "Plane_2"
    },
    {
      "mesh": 0,
      "name": "Object_4"
    },
    {
      "mesh": 1,
      "name": "Object_5"
    },
    {
      "mesh": 2,
      "name": "Object_6"
    },
    {
      "mesh": 3,
      "name": "Object_7"
    },
    {
      "mesh": 4,
      "name": "Object_8"
    },
    {
      "mesh": 5,
      "name": "Object_9"
    },
    {
      "mesh": 6,
      "name": "Object_10"
    },
    {
      "mesh": 7,
      "name": "Object_11"
    },
    {
      "mesh": 8,
      "name": "Object_12"
    },
    {
      "mesh": 9,
      "name": "Object_13"
    },
    {
      "mesh": 10,
      "name": "Object_14"
    },
    {
      "mesh": 11,
      "name": "Object_15"
    }
  ],
  "scene": 0,
  "scenes": [
    {
      "name": "Sketchfab_Scene",
      "nodes": [
        0
      ]
    }
  ]
}
