<svg width="411" height="815" viewBox="0 0 411 815" fill="none" xmlns="http://www.w3.org/2000/svg">
<path d="M279.743 68C262.5 79.5 250.376 85.2897 239.5 94C221.744 108.22 202.367 121.324 185 136C162.073 155.375 133.633 174.68 114 197.5C99.1119 214.805 75.1461 249.704 70.2493 273.099C68.6731 280.63 66.7416 294.552 69.5 302C70.6321 305.057 84.3077 312.521 87 312C110.764 307.401 159.667 268.443 179.341 255.104C203.975 238.403 228.18 219.687 258.443 214.644C280 211.051 341.55 205.13 342.5 226.5C343.964 259.435 303.111 308.269 275.997 335.384C245.715 365.665 231.755 381.643 196.36 407C178.727 419.633 150.838 447.769 133.314 460.62C125.112 466.634 112.495 473.392 106.768 482.242C96.9054 497.484 125.922 492.281 134.17 491.447C159.411 488.894 177.799 473.626 197.965 459.977C224.715 441.874 253.99 432.387 282.098 417.162C290.433 412.647 309.575 409.052 316.244 417.804C326.26 430.95 327.736 441.512 327.911 458.693C328.031 470.407 329.09 483.168 326.198 494.658C322.925 507.663 314.89 518.83 309.072 530.73C301.035 547.169 289.224 561.02 276.104 573.867C252.297 597.179 223.234 617.854 196.788 638.198C177.383 653.124 98.7032 728.871 82 746.778" stroke="black" stroke-width="135" stroke-linecap="round"/>
</svg>
