<svg width="583" height="780" viewBox="0 0 583 780" fill="none" xmlns="http://www.w3.org/2000/svg">
<path fill-rule="evenodd" clip-rule="evenodd" d="M260.78 48.5457C260.779 48.5511 260.779 48.5565 260.779 48.562C260.785 48.3188 260.794 48.2912 260.78 48.5457ZM248.258 93.5164C249.127 89.3163 249.995 85.1128 250.862 80.9061C251.125 79.6265 251.428 78.1023 251.768 76.3929C253.579 67.2855 256.435 52.9211 259.944 42.2781C260.583 40.34 261.414 37.9667 262.426 35.7121C262.881 34.6977 263.856 32.6041 265.394 30.2962C266.156 29.1531 267.617 27.1007 269.853 24.9328C271.757 23.0862 276.584 18.8144 284.31 16.8894C293.918 14.4956 303.897 16.7616 311.449 22.668C317.517 27.4144 320.176 33.0418 321.167 35.3961C323.155 40.1185 323.524 44.2862 323.615 45.3214L323.621 45.3841C323.882 48.3042 323.744 50.9617 323.68 52.0934C323.47 55.8089 322.717 61.9657 322.349 64.9705C322.26 65.7016 322.193 66.2462 322.163 66.5235C315.533 127.003 315.774 159.368 306.398 219.12C309.151 213.151 311.903 207.191 314.652 201.239C325.601 177.525 336.491 153.943 347.119 130.443C354.979 113.064 362.387 95.3316 369.923 77.1592C370.618 75.4829 371.314 73.8022 372.012 72.1177C378.826 55.6761 385.792 38.8675 393.116 22.2398C393.693 20.9297 394.61 18.9324 395.813 16.8895C396.37 15.9429 397.55 14.0145 399.346 11.9091C399.366 11.8855 399.392 11.8547 399.423 11.8171C400.336 10.7286 406.031 3.93755 416.292 1.50001C423.163 -0.13214 431.499 0.376162 439.236 4.77467C446.19 8.72806 449.85 14.2339 451.579 17.4991C454.639 23.2758 455.095 28.5656 455.204 29.8215L455.21 29.8877C455.516 33.3996 455.199 36.4302 455.094 37.4307L455.094 37.4352C454.588 42.2656 453.112 49.2308 451.822 54.9968C448.964 67.7748 444.772 84.3073 442.621 92.5296C440.062 102.314 437.478 112.09 434.87 121.855C439.484 125.864 442.133 130.318 443.073 132.161C445.629 137.171 446.446 141.908 446.746 143.765C447.149 146.27 447.348 148.709 447.461 150.731C447.688 154.801 447.683 159.423 447.604 163.884C447.235 184.832 430.5 294.723 430.5 294.723C430.5 294.723 442.583 249.116 445.007 242C450.153 226.893 456.843 215.724 469.507 215.724C484.595 215.724 493.607 225.499 497.249 231.919C500.314 237.322 501.044 242.3 501.274 244.052C501.816 248.177 501.532 251.86 501.391 253.493C501.045 257.5 500.247 262.095 499.446 266.213C499.428 266.303 499.411 266.393 499.393 266.483C504.134 266.509 509.224 267.522 514.328 270.06C523.833 274.787 528.464 282.471 530.441 286.428C536.507 309.5 528.467 336.029 529.007 337.5C533.007 329.5 543.507 295.404 556.421 297.427C571.484 299.787 583.007 312.82 583.007 328.546C583.007 333.385 582.151 344.351 581.341 352.542C580.915 356.853 580.4 361.448 579.849 365C579.646 366.308 579.176 369.303 578.289 372.237C578.034 373.08 577.528 374.66 576.685 376.516L576.651 376.592C576.369 377.214 575.53 379.07 573.95 381.377C573.962 384.067 573.964 386.964 573.934 390.037C573.899 393.723 573.829 400.39 572.879 405.53L572.877 405.542C572.664 406.694 571.94 410.612 569.798 414.917C568.772 416.979 566.109 421.876 560.633 426.095C555.682 429.91 549.018 432.628 541.598 432.708C540.955 435.63 540.11 439.386 539.341 442.363C539.325 442.427 539.306 442.499 539.286 442.579C538.865 444.22 537.616 449.089 535.537 453.252L535.512 453.302C535.01 454.309 533.01 458.319 529.068 462.167C527.009 464.178 522.328 468.232 514.951 470.174C506.136 472.494 496.872 470.882 489.438 465.965C483.225 461.856 480.117 456.677 478.815 454.194C477.358 451.417 476.605 448.986 476.227 447.595C475.47 444.817 475.218 442.449 475.114 441.31C474.196 431.224 473.82 421.161 473.733 411.312C472.027 415.389 470.349 419.481 468.7 423.589C463.171 453.165 456.725 482.407 449.541 511.312C445.685 526.83 441.397 542.05 436.928 556.971C436.493 558.425 435.944 560.519 435.15 563.545C434.963 564.261 434.761 565.029 434.545 565.853C433.539 569.678 432.26 574.466 430.895 578.777C430.212 580.934 429.374 583.404 428.39 585.817C427.61 587.729 425.912 591.725 423.041 595.637C421.68 597.491 418.525 601.482 413.196 604.702C407.005 608.442 399.528 609.738 391.5 600.723C379.478 587.223 401.943 493.691 399.5 491.723C398.738 495.545 374.698 609.883 373.97 613.562L373.443 616.227C371.729 624.88 370.134 632.901 369.153 637.171C368.936 638.115 368.559 639.727 368.092 641.27C367.958 641.714 367.732 642.435 367.418 643.288L367.415 643.297C367.212 643.848 366.48 645.837 365.163 648.151C364.584 649.168 362.962 651.935 360.098 654.816C358.136 656.789 349.272 665.285 334.912 663.993C331.888 663.72 329.177 663.076 326.756 662.187C325.546 666.755 324.336 671.456 323.073 676.363C321.033 684.293 318.854 692.76 316.31 702.069C311.039 721.361 304.617 742.501 296.296 760.056C295.699 761.317 294.339 764.06 292.034 766.975L291.968 767.058C290.77 768.583 283.013 778.455 268.508 779.184C249.762 780.126 240.848 766.022 238.961 762.557C236.548 758.127 235.741 754.119 235.485 752.798C234.492 747.685 234.67 742.007 234.74 739.798L234.745 739.625C234.909 734.345 235.426 727.721 235.724 723.92C235.782 723.176 235.832 722.541 235.869 722.045C238.591 685.473 240.953 662.472 247.832 624.003C253.379 592.977 260.338 562.92 268.316 533.556C267.983 533.307 266.577 533.052 266.252 532.788C260.073 527.783 257.491 521.873 256.5 519.216C253.144 510.223 275.22 412.777 275 411.312C272.547 420.476 251.197 531.127 249.18 540.484C248.913 541.912 248.646 543.339 248.379 544.767C246.547 554.564 245.561 559.782 245.132 561.991C245.036 562.481 244.922 563.064 244.824 563.531C244.818 563.557 244.81 563.592 244.801 563.636C244.77 563.783 244.718 564.02 244.653 564.295C244.618 564.447 244.521 564.856 244.382 565.37C244.316 565.613 244.174 566.127 243.968 566.769L243.959 566.796C243.868 567.085 243.228 569.118 242.031 571.463C241.058 573.229 237.061 578.574 233.641 581.75C224.139 586.606 210.594 580.525 199 574.122C198.417 577.063 192.032 583.455 191.76 584.829C191.623 585.52 191.524 586.017 191.47 586.286L191.431 586.481L191.406 586.607L191.377 586.748C191.359 586.831 191.29 587.151 191.236 587.389C185.612 599.389 142.284 605.991 129.453 575.232C129.496 574.972 129.558 574.628 129.574 574.54C129.594 574.433 129.612 574.342 129.615 574.323L129.616 574.321C129.628 574.255 129.643 574.182 129.654 574.122C129.837 573.185 130.793 568.337 132.682 558.759C133.015 557.071 133.355 555.386 133.702 553.704C136.299 540.594 139.959 522.13 144.131 501.114C145.65 493.464 170.871 389.574 172.5 381.377C164.713 403.37 133.33 521.273 125.614 543.283C121.129 556.08 116.842 568.379 113.227 580.491C112.366 584.48 111.523 588.357 110.723 591.999C108.543 601.923 106.569 610.645 105.413 615.268C105.148 616.328 104.779 617.769 104.385 619.062C104.274 619.427 104.098 619.988 103.868 620.642L103.864 620.653C103.716 621.074 103.184 622.585 102.294 624.377C101.939 625.093 100.765 627.436 98.6909 630.039C97.6742 631.314 95.4759 633.892 91.9823 636.312C88.5708 638.675 81.3049 642.654 71.3598 641.806C60.6131 640.889 53.3766 634.958 49.5632 630.256C46.1323 626.025 44.6466 621.938 44.0471 620.081C42.8239 616.292 42.6291 613.149 42.5777 612.321L42.5767 612.305C42.4408 610.114 42.5697 608.354 42.6033 607.896L42.6051 607.87C42.6585 607.139 42.7269 606.52 42.7737 606.126C42.8691 605.322 42.9836 604.549 43.0784 603.94C43.2749 602.678 43.5443 601.121 43.8643 599.35C45.9885 587.591 48.8867 576.066 52.1272 564.96C55.7942 547.907 59.6117 529.533 61.5145 519.382C62.8714 512.143 73.699 470.978 75 463.723C73.6417 464.206 62.646 498.552 61.0213 498.873C57.6176 504.296 52.5345 508.734 46.1437 511.314C39.5806 513.963 28.5141 515.831 17.3615 509.499C7.60405 503.958 3.76107 495.379 2.36666 491.503C-0.322411 484.028 -0.0503274 476.671 0.0701522 473.85C0.394291 466.259 1.99252 457.255 3.46915 450.008C6.49919 435.138 11.027 418.526 10.8004 419.452C18.3188 388.713 26.855 358.577 36.0846 328.869C36.7737 326.651 37.342 324.374 38.1062 321.314C38.8254 318.433 39.718 314.858 41.0479 309.983C42.9077 303.166 46.3473 290.929 52.0825 281.978C52.8863 280.723 54.8481 277.811 58.1959 274.94C60.5263 272.94 65.9121 268.959 73.7604 267.699C74.7879 264.228 75.8321 260.763 76.8941 257.306C77.2037 256.298 77.5221 255.256 77.8498 254.183C83.2849 236.4 91.2892 210.21 104.249 190.516C105.492 188.628 107.817 185.33 111.347 182.238C114.102 179.823 123.483 172.336 137.427 174.188C152.647 176.209 159.828 187.302 162.082 191.651C164.525 196.366 165.371 200.733 165.714 202.78C166.988 210.396 166.312 219.991 165.821 226.006C165.193 233.696 151.555 301.345 150.5 309.983C167.662 263.428 188.862 187.589 206.5 141.422C206.576 141.181 206.707 140.764 206.909 140.112C207.335 138.744 207.929 136.835 208.615 134.678C209.944 130.496 211.771 124.883 213.477 120.268C214.26 118.15 215.377 115.247 216.66 112.624L216.67 112.604C217.127 111.668 218.605 108.648 221.065 105.567L221.069 105.562C221.983 104.417 225.555 99.9452 231.891 96.7831C235.447 95.0081 241.138 93.0205 248.258 93.5164ZM214.929 125.07C214.929 125.07 214.927 125.108 214.92 125.188C214.925 125.111 214.929 125.07 214.929 125.07ZM156.812 225.247C156.837 225.209 156.856 225.18 156.867 225.163L156.876 225.149C156.855 225.182 156.833 225.214 156.812 225.247ZM450.86 47.4386C450.86 47.4386 450.846 47.4724 450.817 47.5322C450.846 47.4673 450.86 47.4386 450.86 47.4386ZM477.93 428.09C477.93 428.087 477.947 428.029 477.983 427.924C477.948 428.04 477.93 428.092 477.93 428.09ZM577.106 352.342C577.131 352.413 577.156 352.482 577.181 352.55C577.173 352.529 577.162 352.498 577.148 352.459C577.137 352.426 577.123 352.387 577.106 352.342Z" fill="black"/>
</svg>
