<svg width="495" height="3389" viewBox="0 0 495 3389" fill="none" xmlns="http://www.w3.org/2000/svg">
<path fill-rule="evenodd" clip-rule="evenodd" d="M362.024 62.6038C355.843 61.443 351.167 56.0176 351.167 49.5C351.167 42.1362 357.136 36.1667 364.5 36.1667C371.864 36.1667 377.833 42.1362 377.833 49.5C377.833 56.001 373.181 61.4153 367.024 62.5949C368.09 356.84 404.963 545.172 435.804 702.689C440.802 728.218 445.642 752.938 450.145 777.168C482.879 953.292 497.792 1103.46 426.401 1349.7C372.761 1534.71 281.327 1660.53 197.488 1775.89C169.749 1814.06 142.842 1851.09 118.41 1888.74C69.2294 1964.52 29.9641 2042.91 13.6598 2138.47C-2.6447 2234.02 3.97931 2346.94 46.8971 2491.79C132.861 2781.92 224.44 2930.7 302.304 2996.72C321.678 3013.14 340.164 3024.41 357.471 3031.47C358.255 2996.52 359.689 2963.84 362.009 2936.29C365.043 2900.26 377.909 2880.54 395.426 2873.55C412.793 2866.63 433.546 2872.74 451.28 2885.6C469.088 2898.52 484.425 2918.61 491.136 2940.84C497.869 2963.14 495.928 2987.68 478.958 3009.05C462.172 3030.2 437.041 3045 406.054 3045.97C392.468 3046.39 377.821 3044.15 362.32 3038.67C360.316 3140 363.561 3258.66 366.421 3326.3C372.874 3327.23 377.833 3332.79 377.833 3339.5C377.833 3346.86 371.864 3352.83 364.5 3352.83C357.136 3352.83 351.167 3346.86 351.167 3339.5C351.167 3333.19 355.544 3327.91 361.425 3326.52C358.549 3258.49 355.275 3138.73 357.357 3036.81C338.964 3029.57 319.424 3017.79 299.071 3000.53C220.06 2933.55 128.139 2783.58 42.1031 2493.21C-0.979176 2347.81 -7.73017 2234.1 8.73099 2137.63C25.1922 2041.15 64.8332 1962.11 114.215 1886.01C138.874 1848.02 165.933 1810.78 193.765 1772.48C277.5 1657.25 368.226 1532.39 421.599 1348.3C492.708 1103.04 477.871 953.708 445.23 778.082C440.732 753.883 435.896 729.184 430.9 703.666C400.05 546.11 363.091 357.352 362.024 62.6038ZM362.43 3033.39C377.993 3039.1 392.555 3041.38 405.899 3040.97C435.272 3040.06 459.078 3026.05 475.042 3005.95C490.823 2986.07 492.694 2963.3 486.349 2942.29C479.982 2921.2 465.349 2901.98 448.345 2889.65C431.267 2877.26 412.363 2872.18 397.277 2878.2C382.341 2884.15 369.957 2901.49 366.991 2936.71C364.64 2964.63 363.202 2997.86 362.43 3033.39Z" fill="#B700FF"/>
<path d="M303.504 26.216C302.496 26.216 301.592 26.048 300.792 25.712C299.992 25.36 299.36 24.88 298.896 24.272C298.432 23.648 298.176 22.936 298.128 22.136H300.384C300.448 22.792 300.752 23.328 301.296 23.744C301.856 24.16 302.584 24.368 303.48 24.368C304.312 24.368 304.968 24.184 305.448 23.816C305.928 23.448 306.168 22.984 306.168 22.424C306.168 21.848 305.912 21.424 305.4 21.152C304.888 20.864 304.096 20.584 303.024 20.312C302.048 20.056 301.248 19.8 300.624 19.544C300.016 19.272 299.488 18.88 299.04 18.368C298.608 17.84 298.392 17.152 298.392 16.304C298.392 15.632 298.592 15.016 298.992 14.456C299.392 13.896 299.96 13.456 300.696 13.136C301.432 12.8 302.272 12.632 303.216 12.632C304.672 12.632 305.848 13 306.744 13.736C307.64 14.472 308.12 15.48 308.184 16.76H306C305.952 16.072 305.672 15.52 305.16 15.104C304.664 14.688 303.992 14.48 303.144 14.48C302.36 14.48 301.736 14.648 301.272 14.984C300.808 15.32 300.576 15.76 300.576 16.304C300.576 16.736 300.712 17.096 300.984 17.384C301.272 17.656 301.624 17.88 302.04 18.056C302.472 18.216 303.064 18.4 303.816 18.608C304.76 18.864 305.528 19.12 306.12 19.376C306.712 19.616 307.216 19.984 307.632 20.48C308.064 20.976 308.288 21.624 308.304 22.424C308.304 23.144 308.104 23.792 307.704 24.368C307.304 24.944 306.736 25.4 306 25.736C305.28 26.056 304.448 26.216 303.504 26.216ZM310.571 19.4C310.571 18.04 310.843 16.856 311.387 15.848C311.931 14.824 312.683 14.032 313.643 13.472C314.619 12.912 315.731 12.632 316.979 12.632C318.595 12.632 319.923 13.024 320.963 13.808C322.019 14.592 322.715 15.68 323.051 17.072H320.699C320.475 16.272 320.035 15.64 319.379 15.176C318.739 14.712 317.939 14.48 316.979 14.48C315.731 14.48 314.723 14.912 313.955 15.776C313.187 16.624 312.803 17.832 312.803 19.4C312.803 20.984 313.187 22.208 313.955 23.072C314.723 23.936 315.731 24.368 316.979 24.368C317.939 24.368 318.739 24.144 319.379 23.696C320.019 23.248 320.459 22.608 320.699 21.776H323.051C322.699 23.12 321.995 24.2 320.939 25.016C319.883 25.816 318.563 26.216 316.979 26.216C315.731 26.216 314.619 25.936 313.643 25.376C312.683 24.816 311.931 24.024 311.387 23C310.843 21.976 310.571 20.776 310.571 19.4ZM328.149 14.984C328.533 14.232 329.077 13.648 329.781 13.232C330.501 12.816 331.373 12.608 332.397 12.608V14.864H331.821C329.373 14.864 328.149 16.192 328.149 18.848V26H325.965V12.848H328.149V14.984ZM340.654 26.216C339.422 26.216 338.302 25.936 337.294 25.376C336.302 24.816 335.518 24.024 334.942 23C334.382 21.96 334.102 20.76 334.102 19.4C334.102 18.056 334.39 16.872 334.966 15.848C335.558 14.808 336.358 14.016 337.366 13.472C338.374 12.912 339.502 12.632 340.75 12.632C341.998 12.632 343.126 12.912 344.134 13.472C345.142 14.016 345.934 14.8 346.51 15.824C347.102 16.848 347.398 18.04 347.398 19.4C347.398 20.76 347.094 21.96 346.486 23C345.894 24.024 345.086 24.816 344.062 25.376C343.038 25.936 341.902 26.216 340.654 26.216ZM340.654 24.296C341.438 24.296 342.174 24.112 342.862 23.744C343.55 23.376 344.102 22.824 344.518 22.088C344.95 21.352 345.166 20.456 345.166 19.4C345.166 18.344 344.958 17.448 344.542 16.712C344.126 15.976 343.582 15.432 342.91 15.08C342.238 14.712 341.51 14.528 340.726 14.528C339.926 14.528 339.19 14.712 338.518 15.08C337.862 15.432 337.334 15.976 336.934 16.712C336.534 17.448 336.334 18.344 336.334 19.4C336.334 20.472 336.526 21.376 336.91 22.112C337.31 22.848 337.838 23.4 338.494 23.768C339.15 24.12 339.87 24.296 340.654 24.296ZM352.454 8.24V26H350.27V8.24H352.454ZM358.36 8.24V26H356.176V8.24H358.36ZM367.665 19.376C367.665 18.032 367.937 16.856 368.481 15.848C369.025 14.824 369.769 14.032 370.713 13.472C371.673 12.912 372.745 12.632 373.929 12.632C374.953 12.632 375.905 12.872 376.785 13.352C377.665 13.816 378.337 14.432 378.801 15.2V8.24H381.009V26H378.801V23.528C378.369 24.312 377.729 24.96 376.881 25.472C376.033 25.968 375.041 26.216 373.905 26.216C372.737 26.216 371.673 25.928 370.713 25.352C369.769 24.776 369.025 23.968 368.481 22.928C367.937 21.888 367.665 20.704 367.665 19.376ZM378.801 19.4C378.801 18.408 378.601 17.544 378.201 16.808C377.801 16.072 377.257 15.512 376.569 15.128C375.897 14.728 375.153 14.528 374.337 14.528C373.521 14.528 372.777 14.72 372.105 15.104C371.433 15.488 370.897 16.048 370.497 16.784C370.097 17.52 369.897 18.384 369.897 19.376C369.897 20.384 370.097 21.264 370.497 22.016C370.897 22.752 371.433 23.32 372.105 23.72C372.777 24.104 373.521 24.296 374.337 24.296C375.153 24.296 375.897 24.104 376.569 23.72C377.257 23.32 377.801 22.752 378.201 22.016C378.601 21.264 378.801 20.392 378.801 19.4ZM390.436 26.216C389.204 26.216 388.084 25.936 387.076 25.376C386.084 24.816 385.3 24.024 384.724 23C384.164 21.96 383.884 20.76 383.884 19.4C383.884 18.056 384.172 16.872 384.748 15.848C385.34 14.808 386.14 14.016 387.148 13.472C388.156 12.912 389.284 12.632 390.532 12.632C391.78 12.632 392.908 12.912 393.916 13.472C394.924 14.016 395.716 14.8 396.292 15.824C396.884 16.848 397.18 18.04 397.18 19.4C397.18 20.76 396.876 21.96 396.268 23C395.676 24.024 394.868 24.816 393.844 25.376C392.82 25.936 391.684 26.216 390.436 26.216ZM390.436 24.296C391.22 24.296 391.956 24.112 392.644 23.744C393.332 23.376 393.884 22.824 394.3 22.088C394.732 21.352 394.948 20.456 394.948 19.4C394.948 18.344 394.74 17.448 394.324 16.712C393.908 15.976 393.364 15.432 392.692 15.08C392.02 14.712 391.292 14.528 390.508 14.528C389.708 14.528 388.972 14.712 388.3 15.08C387.644 15.432 387.116 15.976 386.716 16.712C386.316 17.448 386.116 18.344 386.116 19.4C386.116 20.472 386.308 21.376 386.692 22.112C387.092 22.848 387.62 23.4 388.276 23.768C388.932 24.12 389.652 24.296 390.436 24.296ZM417.571 12.848L413.467 26H411.211L408.043 15.56L404.875 26H402.619L398.491 12.848H400.723L403.747 23.888L407.011 12.848H409.243L412.435 23.912L415.411 12.848H417.571ZM426.147 12.608C427.747 12.608 429.043 13.096 430.035 14.072C431.027 15.032 431.523 16.424 431.523 18.248V26H429.363V18.56C429.363 17.248 429.035 16.248 428.379 15.56C427.723 14.856 426.827 14.504 425.691 14.504C424.539 14.504 423.619 14.864 422.931 15.584C422.259 16.304 421.923 17.352 421.923 18.728V26H419.739V12.848H421.923V14.72C422.355 14.048 422.939 13.528 423.675 13.16C424.427 12.792 425.251 12.608 426.147 12.608Z" fill="#B700FF"/>
<path d="M354.848 3371.92C354.848 3372.34 354.824 3372.78 354.776 3373.24H344.264C344.344 3374.54 344.784 3375.55 345.584 3376.29C346.4 3377.01 347.384 3377.37 348.536 3377.37C349.48 3377.37 350.264 3377.15 350.888 3376.72C351.528 3376.27 351.976 3375.68 352.232 3374.94H354.584C354.232 3376.21 353.528 3377.24 352.472 3378.04C351.416 3378.82 350.104 3379.22 348.536 3379.22C347.288 3379.22 346.168 3378.94 345.176 3378.38C344.2 3377.82 343.432 3377.02 342.872 3376C342.312 3374.96 342.032 3373.76 342.032 3372.4C342.032 3371.04 342.304 3369.85 342.848 3368.82C343.392 3367.8 344.152 3367.02 345.128 3366.47C346.12 3365.91 347.256 3365.63 348.536 3365.63C349.784 3365.63 350.888 3365.9 351.848 3366.45C352.808 3366.99 353.544 3367.74 354.056 3368.7C354.584 3369.65 354.848 3370.72 354.848 3371.92ZM352.592 3371.46C352.592 3370.63 352.408 3369.92 352.04 3369.33C351.672 3368.72 351.168 3368.26 350.528 3367.96C349.904 3367.64 349.208 3367.48 348.44 3367.48C347.336 3367.48 346.392 3367.83 345.608 3368.54C344.84 3369.24 344.4 3370.22 344.288 3371.46H352.592ZM364.139 3365.61C365.739 3365.61 367.035 3366.1 368.027 3367.07C369.019 3368.03 369.515 3369.42 369.515 3371.25V3379H367.355V3371.56C367.355 3370.25 367.027 3369.25 366.371 3368.56C365.715 3367.86 364.819 3367.5 363.683 3367.5C362.531 3367.5 361.611 3367.86 360.923 3368.58C360.251 3369.3 359.915 3370.35 359.915 3371.73V3379H357.731V3365.85H359.915V3367.72C360.347 3367.05 360.931 3366.53 361.667 3366.16C362.419 3365.79 363.243 3365.61 364.139 3365.61ZM372.266 3372.38C372.266 3371.03 372.538 3369.86 373.082 3368.85C373.626 3367.82 374.37 3367.03 375.314 3366.47C376.274 3365.91 377.346 3365.63 378.53 3365.63C379.554 3365.63 380.506 3365.87 381.386 3366.35C382.266 3366.82 382.938 3367.43 383.402 3368.2V3361.24H385.61V3379H383.402V3376.53C382.97 3377.31 382.33 3377.96 381.482 3378.47C380.634 3378.97 379.642 3379.22 378.506 3379.22C377.338 3379.22 376.274 3378.93 375.314 3378.35C374.37 3377.78 373.626 3376.97 373.082 3375.93C372.538 3374.89 372.266 3373.7 372.266 3372.38ZM383.402 3372.4C383.402 3371.41 383.202 3370.54 382.802 3369.81C382.402 3369.07 381.858 3368.51 381.17 3368.13C380.498 3367.73 379.754 3367.53 378.938 3367.53C378.122 3367.53 377.378 3367.72 376.706 3368.1C376.034 3368.49 375.498 3369.05 375.098 3369.78C374.698 3370.52 374.498 3371.38 374.498 3372.38C374.498 3373.38 374.698 3374.26 375.098 3375.02C375.498 3375.75 376.034 3376.32 376.706 3376.72C377.378 3377.1 378.122 3377.3 378.938 3377.3C379.754 3377.3 380.498 3377.1 381.17 3376.72C381.858 3376.32 382.402 3375.75 382.802 3375.02C383.202 3374.26 383.402 3373.39 383.402 3372.4Z" fill="#B700FF"/>
</svg>
