<svg width="495" height="3317" viewBox="0 0 495 3317" fill="none" xmlns="http://www.w3.org/2000/svg">
<path d="M351.167 13.5C351.167 20.8638 357.136 26.8333 364.5 26.8333C371.864 26.8333 377.833 20.8638 377.833 13.5C377.833 6.1362 371.864 0.166667 364.5 0.166667C357.136 0.166667 351.167 6.1362 351.167 13.5ZM364.5 2900.5L366.991 2900.71L364.5 2900.5ZM351.167 3303.5C351.167 3310.86 357.136 3316.83 364.5 3316.83C371.864 3316.83 377.833 3310.86 377.833 3303.5C377.833 3296.14 371.864 3290.17 364.5 3290.17C357.136 3290.17 351.167 3296.14 351.167 3303.5ZM362 13.5C362 364.026 412.554 566.27 445.23 742.082C477.871 917.708 492.708 1067.04 421.599 1312.3L426.401 1313.7C497.792 1067.46 482.879 917.292 450.145 741.168C417.446 565.23 367 363.474 367 13.5H362ZM421.599 1312.3C350.486 1557.58 213.064 1697.7 114.215 1850.01C64.8331 1926.11 25.1922 2005.15 8.73093 2101.63C-7.73022 2198.1 -0.979231 2311.81 42.103 2457.21L46.897 2455.79C3.97925 2310.94 -2.64476 2198.02 13.6597 2102.47C29.9641 2006.91 69.2294 1928.52 118.41 1852.74C216.686 1701.3 355.014 1559.92 426.401 1313.7L421.599 1312.3ZM42.103 2457.21C128.139 2747.58 220.06 2897.55 299.071 2964.53C338.617 2998.06 375.089 3010.93 406.054 3009.97C437.041 3009 462.172 2994.2 478.958 2973.05L475.042 2969.95C459.078 2990.05 435.272 3004.06 405.899 3004.97C376.504 3005.88 341.196 2993.69 302.304 2960.72C224.44 2894.7 132.861 2745.92 46.897 2455.79L42.103 2457.21ZM478.958 2973.05C495.928 2951.68 497.869 2927.14 491.135 2904.84C484.424 2882.61 469.088 2862.52 451.28 2849.6C433.546 2836.74 412.793 2830.63 395.426 2837.55C377.909 2844.54 365.043 2864.26 362.009 2900.29L366.991 2900.71C369.957 2865.49 382.341 2848.15 397.277 2842.2C412.363 2836.18 431.267 2841.26 448.345 2853.65C465.349 2865.98 479.982 2885.2 486.349 2906.29C492.694 2927.3 490.822 2950.07 475.042 2969.95L478.958 2973.05ZM362.009 2900.29C352.394 3014.47 358.003 3216.79 362.003 3303.62L366.997 3303.38C362.997 3216.55 357.406 3014.53 366.991 2900.71L362.009 2900.29Z" fill="#B700FF"/>
</svg>
