<svg width="807" height="807" viewBox="0 0 807 807" fill="none" xmlns="http://www.w3.org/2000/svg">
<path d="M472.854 79C460 91.5 454 98.3541 441.812 108.115C424.056 122.335 406.837 137.003 389.47 151.68C366.543 171.054 347.127 189.551 327.494 212.371C312.606 229.676 292.037 245.064 287.141 268.459C285.564 275.99 283.633 289.912 286.391 297.36C287.523 300.417 302.003 298.844 304.695 298.323C328.459 293.724 352.777 279.443 372.451 266.104C397.085 249.403 421.29 230.687 451.553 225.644C473.11 222.051 483.357 233.924 484.307 255.293C485.771 288.228 496.222 319.269 469.107 346.384C438.826 376.665 407.845 403.447 372.451 428.804C354.818 441.437 339.796 454.073 324.11 469.693C313.61 477.5 305.605 484.392 299.878 493.242C290.016 508.484 319.032 503.281 327.28 502.447C352.521 499.894 370.909 484.626 391.076 470.977C417.825 452.874 447.1 443.387 475.208 428.162C483.543 423.647 502.686 420.052 509.354 428.804C519.37 441.951 520.846 452.512 521.021 469.693C521.141 481.407 522.201 494.168 519.309 505.658C516.035 518.663 508 529.83 502.182 541.73C494.145 558.169 482.335 572.02 469.214 584.867C445.407 608.179 416.344 628.854 389.898 649.198C370.493 664.124 353.189 678.495 336.486 696.402C326.339 707.28 317.728 717.69 306.61 727.5" stroke="white" stroke-width="135" stroke-linecap="round"/>
</svg>
