<svg width="807" height="807" viewBox="0 0 807 807" fill="none" xmlns="http://www.w3.org/2000/svg">
<path fill-rule="evenodd" clip-rule="evenodd" d="M521.244 31.9405C547.235 58.6658 546.639 101.4 519.913 127.391C517.706 129.537 515.466 131.774 513.144 134.093C505.114 142.112 496.097 151.116 484.033 160.781C497.345 164.323 510.671 171.084 522.546 182.551C545.629 204.84 550.902 233.442 551.74 252.296C551.941 256.813 552.351 260.948 552.938 266.865C553.126 268.763 553.332 270.844 553.556 273.18C554.353 281.518 555.358 293.17 554.873 305.644C554.128 324.807 549.831 345.934 538.13 366.424C546.876 371.181 555.537 378.04 563.046 387.896C572.851 400.766 580.13 414.79 584.278 431.03C588.035 445.737 588.42 459.469 588.518 469.004C588.523 469.493 588.553 470.292 588.594 471.357C588.9 479.328 589.777 502.227 584.767 522.134C581.135 536.563 575.299 548.287 571.276 555.841C568.455 561.136 566.984 563.711 565.907 565.596C564.807 567.523 564.118 568.728 562.823 571.377C549.968 597.672 532.091 617.771 516.439 633.096C493.96 655.107 467.028 675.458 445.121 692.011C440.134 695.779 435.408 699.35 431.054 702.7C412.842 716.709 398.871 728.48 385.846 742.444C384.404 743.989 382.665 745.914 380.681 748.109C373.324 756.251 362.607 768.11 351.269 778.114C323.316 802.779 280.66 800.113 255.996 772.159C231.331 744.206 233.997 701.551 261.951 676.886C267.143 672.304 270.576 668.508 276.223 662.263C279.105 659.076 282.563 655.252 287.126 650.36C307.507 628.509 328.145 611.54 348.743 595.695C355.083 590.818 361.163 586.21 367.002 581.786C388.246 565.686 406.286 552.014 421.99 536.638C426.991 531.741 430.912 527.46 433.996 523.613C432.244 524.681 430.553 525.765 428.908 526.879C427.474 527.849 425.706 529.121 423.626 530.619C408.114 541.781 375.234 565.442 334.072 569.604C337.182 569.29 316.782 572.251 302.011 571.204C297.322 570.871 290.082 570.046 281.966 567.518C274.448 565.177 260.454 559.625 248.421 546.108C234.329 530.278 228.799 510.139 230.736 491.186C232.382 475.073 238.987 463.094 243.207 456.572C254.48 439.151 268.667 427.064 279.918 418.473C297.052 401.735 313.91 387.709 333.14 373.932C348.699 362.785 363.34 351.324 377.48 339.289C368.823 342.953 360.344 346.032 352.883 348.546C334.385 354.779 315.058 359.849 299.967 362.77C271.647 368.251 244.037 355.165 229.713 332.007C226.696 327.571 224.164 322.701 222.217 317.444C215.17 298.417 216.739 280.904 217.706 273.032C218.607 265.695 220.417 257.575 220.941 255.226C221.006 254.935 221.051 254.733 221.072 254.631C229.805 212.911 254.167 184.6 268.857 167.529C269.016 167.344 269.174 167.16 269.331 166.977C283.226 150.827 298.564 137.774 311.535 127.377C317.867 122.303 322.986 118.335 327.606 114.753C334.03 109.774 339.49 105.542 345.902 100.123C347.874 98.4569 349.859 96.7772 351.858 95.0867C367.129 82.1687 383.148 68.6175 399.618 55.4278C405.562 50.6678 408.18 48.0552 414.131 42.1172C416.997 39.2568 420.637 35.6248 425.794 30.6094C452.52 4.61911 495.254 5.21506 521.244 31.9405ZM416.873 258.291C416.874 258.303 416.875 258.316 416.875 258.328C416.823 257.858 416.852 257.812 416.873 258.291Z" fill="#FFF7F7"/>
</svg>
